<svg width="633" height="84" viewBox="0 0 633 84" fill="none" xmlns="http://www.w3.org/2000/svg">
<path d="M10 2.65527C5.83333 2.65527 2.5 5.98861 2.5 10.1553C2.5 14.3219 5.83333 17.6553 10 17.6553C14.1667 17.6553 17.5 14.3219 17.5 10.1553C17.5 5.98861 14.1667 2.65527 10 2.65527Z" fill="white"/>
<path d="M17.5 10.1553H610.5C621.546 10.1553 630.5 19.1096 630.5 30.1553V83.1553M2.5 10.1553C2.5 5.98861 5.83333 2.65527 10 2.65527C14.1667 2.65527 17.5 5.98861 17.5 10.1553C17.5 14.3219 14.1667 17.6553 10 17.6553C5.83333 17.6553 2.5 14.3219 2.5 10.1553Z" stroke="#30324F" stroke-width="5"/>
</svg>
