<svg width="60" height="60" viewBox="0 0 60 60" fill="none" xmlns="http://www.w3.org/2000/svg">
<rect x="2" y="2" width="56" height="56" rx="20" fill="#181818"/>
<rect x="2" y="2" width="56" height="56" rx="20" stroke="#272E30" stroke-width="3"/>
<path d="M19.5 22.9997C19.5 21.762 19.9917 20.575 20.8668 19.6998C21.742 18.8247 22.929 18.333 24.1667 18.333H40.5V41.6663H24.1667C22.929 41.6663 21.742 41.1747 20.8668 40.2995C19.9917 39.4243 19.5 38.2373 19.5 36.9997V22.9997ZM21.8333 32.9572C22.5425 32.547 23.3475 32.3317 24.1667 32.333H38.1667V20.6663H24.1667C23.5478 20.6663 22.9543 20.9122 22.5167 21.3498C22.0792 21.7873 21.8333 22.3808 21.8333 22.9997V32.9572ZM38.1667 34.6663H24.1667C23.5478 34.6663 22.9543 34.9122 22.5167 35.3497C22.0792 35.7873 21.8333 36.3808 21.8333 36.9997C21.8333 37.6185 22.0792 38.212 22.5167 38.6496C22.9543 39.0872 23.5478 39.333 24.1667 39.333H38.1667V34.6663ZM27.6667 22.9997H35.8333V25.333H27.6667V22.9997Z" fill="white"/>
<path d="M36 8C46.6667 8 52 13.9429 52 24" stroke="#373737" stroke-width="3" stroke-linecap="round" stroke-linejoin="round"/>
</svg>
